REM DIRINDEX 1\2\6,1\2\7,1\2\8,1\2\9,1\3\10,1\3\11,1\4\12,1\4\13,1\4\14,1\5\15,1\5\16,1\5\17
REM DIRNAME cjc020,folder01,folder02,folder03,folder04,folder05,folder06,folder07,folder08,folder09,folder10,folder11,folder12,folder13,folder14,folder15,folder16
TITLE ""
FILE "1900_3_062 sec11_1016_1032.mp3" MP3
  TRACK 01 AUDIO
    TITLE "0:"
    INDEX 01 00:00:00
  TRACK 02 AUDIO
    TITLE "17:cjc020_8009"
    INDEX 01 00:00:13
  TRACK 03 AUDIO
    TITLE "0:"
    INDEX 01 00:01:07
  TRACK 04 AUDIO
    TITLE "16:cjc020_8010"
    INDEX 01 00:01:11
  TRACK 05 AUDIO
    TITLE "0:"
    INDEX 01 00:02:20
  TRACK 06 AUDIO
    TITLE "17:cjc020_8011"
    INDEX 01 00:03:04
  TRACK 07 AUDIO
    TITLE "0:"
    INDEX 01 00:04:74
  TRACK 08 AUDIO
    TITLE "16:cjc020_8012"
    INDEX 01 00:05:09
  TRACK 09 AUDIO
    TITLE "0:"
    INDEX 01 00:06:08
  TRACK 10 AUDIO
    TITLE "17:cjc020_8013"
    INDEX 01 00:06:67
  TRACK 11 AUDIO
    TITLE "0:"
    INDEX 01 00:07:62
  TRACK 12 AUDIO
    TITLE "16:cjc020_8014"
    INDEX 01 00:07:68
  TRACK 13 AUDIO
    TITLE "0:"
    INDEX 01 00:09:00
  TRACK 14 AUDIO
    TITLE "17:cjc020_8015"
    INDEX 01 00:09:57
  TRACK 15 AUDIO
    TITLE "0:"
    INDEX 01 00:10:74
  TRACK 16 AUDIO
    TITLE "16:cjc020_8016"
    INDEX 01 00:11:07
  TRACK 17 AUDIO
    TITLE "0:"
    INDEX 01 00:12:03
  TRACK 18 AUDIO
    TITLE "17:cjc020_8017"
    INDEX 01 00:12:63
  TRACK 19 AUDIO
    TITLE "0:"
    INDEX 01 00:13:67
  TRACK 20 AUDIO
    TITLE "16:cjc020_8018"
    INDEX 01 00:13:71
  TRACK 21 AUDIO
    TITLE "0:"
    INDEX 01 00:14:68
  TRACK 22 AUDIO
    TITLE "17:cjc020_8019"
    INDEX 01 00:15:48
  TRACK 23 AUDIO
    TITLE "0:"
    INDEX 01 00:16:55
  TRACK 24 AUDIO
    TITLE "16:cjc020_8020"
    INDEX 01 00:16:59
  TRACK 25 AUDIO
    TITLE "0:"
    INDEX 01 00:17:57
  TRACK 26 AUDIO
    TITLE "17:cjc020_8021"
    INDEX 01 00:18:39
  TRACK 27 AUDIO
    TITLE "0:"
    INDEX 01 00:19:54
  TRACK 28 AUDIO
    TITLE "16:cjc020_8022"
    INDEX 01 00:19:60
  TRACK 29 AUDIO
    TITLE "0:"
    INDEX 01 00:20:53
  TRACK 30 AUDIO
    TITLE "17:cjc020_8023"
    INDEX 01 00:21:37
  TRACK 31 AUDIO
    TITLE "0:"
    INDEX 01 00:22:44
  TRACK 32 AUDIO
    TITLE "16:cjc020_8024"
    INDEX 01 00:22:48
  TRACK 33 AUDIO
    TITLE "0:"
    INDEX 01 00:23:65
  TRACK 34 AUDIO
    TITLE "17:cjc020_8025"
    INDEX 01 00:24:51
  TRACK 35 AUDIO
    TITLE "0:"
    INDEX 01 00:25:70
  TRACK 36 AUDIO
    TITLE "16:cjc020_8026"
    INDEX 01 00:25:72
  TRACK 37 AUDIO
    TITLE "0:"
    INDEX 01 00:27:02
  TRACK 38 AUDIO
    TITLE "17:cjc020_8027"
    INDEX 01 00:27:63
  TRACK 39 AUDIO
    TITLE "0:"
    INDEX 01 00:29:17
  TRACK 40 AUDIO
    TITLE "16:cjc020_8028"
    INDEX 01 00:29:19
  TRACK 41 AUDIO
    TITLE "0:"
    INDEX 01 00:30:32
  TRACK 42 AUDIO
    TITLE "17:cjc020_8029"
    INDEX 01 00:31:14
  TRACK 43 AUDIO
    TITLE "0:"
    INDEX 01 00:32:15
  TRACK 44 AUDIO
    TITLE "16:cjc020_8030"
    INDEX 01 00:32:21
  TRACK 45 AUDIO
    TITLE "0:"
    INDEX 01 00:33:19
  TRACK 46 AUDIO
    TITLE "17:cjc020_8031"
    INDEX 01 00:34:04
  TRACK 47 AUDIO
    TITLE "0:"
    INDEX 01 00:35:06
  TRACK 48 AUDIO
    TITLE "16:cjc020_8032"
    INDEX 01 00:35:08
  TRACK 49 AUDIO
    TITLE "0:"
    INDEX 01 00:36:15
  TRACK 50 AUDIO
    TITLE "17:cjc020_8033"
    INDEX 01 00:36:72
  TRACK 51 AUDIO
    TITLE "0:"
    INDEX 01 00:38:14
  TRACK 52 AUDIO
    TITLE "16:cjc020_8034"
    INDEX 01 00:38:18
  TRACK 53 AUDIO
    TITLE "0:"
    INDEX 01 00:39:31
  TRACK 54 AUDIO
    TITLE "17:cjc020_8035"
    INDEX 01 00:40:13
  TRACK 55 AUDIO
    TITLE "0:"
    INDEX 01 00:42:53
  TRACK 56 AUDIO
    TITLE "16:cjc020_8036"
    INDEX 01 00:42:57
  TRACK 57 AUDIO
    TITLE "0:"
    INDEX 01 00:43:50
  TRACK 58 AUDIO
    TITLE "17:cjc020_8037"
    INDEX 01 00:44:34
  TRACK 59 AUDIO
    TITLE "0:"
    INDEX 01 00:45:57
  TRACK 60 AUDIO
    TITLE "16:cjc020_8038"
    INDEX 01 00:45:61
  TRACK 61 AUDIO
    TITLE "0:"
    INDEX 01 00:46:56
  TRACK 62 AUDIO
    TITLE "17:cjc020_8039"
    INDEX 01 00:47:42
  TRACK 63 AUDIO
    TITLE "0:"
    INDEX 01 00:48:67
  TRACK 64 AUDIO
    TITLE "16:cjc020_8040"
    INDEX 01 00:48:71
  TRACK 65 AUDIO
    TITLE "0:"
    INDEX 01 00:49:74
  TRACK 66 AUDIO
    TITLE "17:cjc020_8041"
    INDEX 01 00:50:56
  TRACK 67 AUDIO
    TITLE "0:"
    INDEX 01 00:51:60
  TRACK 68 AUDIO
    TITLE "16:cjc020_8042"
    INDEX 01 00:51:71
  TRACK 69 AUDIO
    TITLE "0:"
    INDEX 01 00:52:69
